<svg xmlns="http://www.w3.org/2000/svg" xmlns:xlink="http://www.w3.org/1999/xlink" id="insignia_playstore" width="155" height="60" viewBox="0 0 155 60"><defs><clipPath id="clip-path"><rect id="Rectangle_2725" data-name="Rectangle 2725" width="155" height="60" fill="none"></rect></clipPath><clipPath id="clip-path-4"><path id="Path_5605" data-name="Path 5605" d="M20.44,17.54a2.012,2.012,0,0,0-.46,1.4V41.06a1.977,1.977,0,0,0,.46,1.4l.07.07L32.9,30.15v-.3L20.51,17.47Z" fill="none"></path></clipPath><linearGradient id="linear-gradient" x1="-0.485" y1="1.624" x2="-0.447" y2="1.624" gradientUnits="objectBoundingBox"><stop offset="0" stop-color="#00a0ff"></stop><stop offset="0.007" stop-color="#00a1ff"></stop><stop offset="0.26" stop-color="#00beff"></stop><stop offset="0.512" stop-color="#00d2ff"></stop><stop offset="0.76" stop-color="#00dfff"></stop><stop offset="1" stop-color="#00e3ff"></stop></linearGradient><clipPath id="clip-path-5"><path id="Path_5606" data-name="Path 5606" d="M32.9,29.85v.3l4.13,4.13.09-.06,4.89-2.78c1.4-.8,1.4-2.1,0-2.89l-4.89-2.78-.09-.05Z" fill="none"></path></clipPath><linearGradient id="linear-gradient-2" x1="-3.13" y1="4.005" x2="-3.035" y2="4.005" gradientUnits="objectBoundingBox"><stop offset="0" stop-color="#ffe000"></stop><stop offset="0.409" stop-color="#ffbd00"></stop><stop offset="0.775" stop-color="orange"></stop><stop offset="1" stop-color="#ff9c00"></stop></linearGradient><clipPath id="clip-path-6"><path id="Path_5607" data-name="Path 5607" d="M20.44,42.46a1.622,1.622,0,0,0,2.08.06l14.6-8.29L32.9,30Z" fill="none"></path></clipPath><linearGradient id="linear-gradient-3" x1="-0.871" y1="1.617" x2="-0.823" y2="1.617" gradientUnits="objectBoundingBox"><stop offset="0" stop-color="#ff3a44"></stop><stop offset="1" stop-color="#c31162"></stop></linearGradient><clipPath id="clip-path-7"><path id="Path_5608" data-name="Path 5608" d="M20.43,17.54,32.9,30l4.22-4.22-14.61-8.3a2.3,2.3,0,0,0-1.125-.339,1.271,1.271,0,0,0-.955.4" fill="none"></path></clipPath><linearGradient id="linear-gradient-4" x1="-0.877" y1="2.239" x2="-0.829" y2="2.239" gradientUnits="objectBoundingBox"><stop offset="0" stop-color="#32a071"></stop><stop offset="0.068" stop-color="#2da771"></stop><stop offset="0.476" stop-color="#15cf74"></stop><stop offset="0.801" stop-color="#06e775"></stop><stop offset="1" stop-color="#00f076"></stop></linearGradient><clipPath id="clip-path-9"><rect id="Rectangle_2716" data-name="Rectangle 2716" width="16.68" height="8.725" transform="translate(20.44 34.13)" fill="none"></rect></clipPath><clipPath id="clip-path-10"><rect id="Rectangle_2717" data-name="Rectangle 2717" width="0.53" height="1.55" transform="translate(19.98 40.92)" fill="none"></rect></clipPath><clipPath id="clip-path-11"><rect id="Rectangle_2718" data-name="Rectangle 2718" width="6.03" height="4.22" transform="translate(37.02 30)" fill="none"></rect></clipPath><clipPath id="clip-path-12"><rect id="Rectangle_2719" data-name="Rectangle 2719" width="23.09" height="12.854" transform="translate(19.97 17.146)" fill="none"></rect></clipPath></defs><g id="Group_4427" data-name="Group 4427" clip-path="url(#clip-path)"><g id="Group_4404" data-name="Group 4404"><g id="Group_4403" data-name="Group 4403" clip-path="url(#clip-path)"><g id="Group_4402" data-name="Group 4402" opacity="0"><g id="Group_4401" data-name="Group 4401"><g id="Group_4400" data-name="Group 4400" clip-path="url(#clip-path)"><rect id="Rectangle_2709" data-name="Rectangle 2709" width="155" height="60" fill="#fff"></rect></g></g></g><path id="Path_5602" data-name="Path 5602" d="M140,50H15a5.015,5.015,0,0,1-5-5V15a5.015,5.015,0,0,1,5-5H140a5.015,5.015,0,0,1,5,5V45a5.015,5.015,0,0,1-5,5"></path><path id="Path_5603" data-name="Path 5603" d="M140,10.8a4.2,4.2,0,0,1,4.2,4.2V45a4.2,4.2,0,0,1-4.2,4.2H15A4.2,4.2,0,0,1,10.8,45V15A4.2,4.2,0,0,1,15,10.8Zm0-.8H15a5.015,5.015,0,0,0-5,5V45a5.015,5.015,0,0,0,5,5H140a5.015,5.015,0,0,0,5-5V15a5.015,5.015,0,0,0-5-5" fill="#a6a6a6"></path><path id="Path_5604" data-name="Path 5604" d="M78.14,31.75A4.25,4.25,0,1,0,82.41,36a4.195,4.195,0,0,0-4.27-4.25m0,6.83A2.587,2.587,0,1,1,80.54,36a2.458,2.458,0,0,1-2.4,2.58m-9.32-6.83A4.25,4.25,0,1,0,73.09,36a4.195,4.195,0,0,0-4.27-4.25m0,6.83A2.587,2.587,0,1,1,71.22,36a2.458,2.458,0,0,1-2.4,2.58M57.74,33.06v1.8h4.32a3.8,3.8,0,0,1-.98,2.27,4.411,4.411,0,0,1-3.33,1.32,4.8,4.8,0,0,1,0-9.6A4.571,4.571,0,0,1,61,30.14l1.27-1.27a6.3,6.3,0,0,0-4.53-1.82,6.611,6.611,0,1,0,0,13.22,6.03,6.03,0,0,0,4.61-1.85,5.968,5.968,0,0,0,1.56-4.22,5.456,5.456,0,0,0-.1-1.13H57.74Zm45.31,1.4a3.946,3.946,0,0,0-3.64-2.71A4.038,4.038,0,0,0,95.4,36a4.159,4.159,0,0,0,4.22,4.25,4.214,4.214,0,0,0,3.54-1.88l-1.45-.97a2.419,2.419,0,0,1-2.09,1.18,2.163,2.163,0,0,1-2.06-1.29l5.69-2.35Zm-5.8,1.42a2.331,2.331,0,0,1,2.22-2.48,1.652,1.652,0,0,1,1.58.9ZM92.63,40H94.5V27.5H92.63Zm-3.06-7.3H89.5a2.94,2.94,0,0,0-2.24-.95,4.259,4.259,0,0,0,0,8.51,2.9,2.9,0,0,0,2.24-.97h.06v.61c0,1.63-.87,2.5-2.27,2.5a2.354,2.354,0,0,1-2.14-1.51l-1.63.68a4.053,4.053,0,0,0,3.77,2.51c2.19,0,4.04-1.29,4.04-4.43V32.01H89.56v.69Zm-2.15,5.88a2.584,2.584,0,0,1,0-5.15,2.4,2.4,0,0,1,2.27,2.59,2.365,2.365,0,0,1-2.27,2.56M111.81,27.5h-4.47V40h1.87V35.26h2.61a3.886,3.886,0,1,0-.01-7.76m.04,6.02H109.2V29.23h2.65a2.145,2.145,0,1,1,0,4.29m11.54-1.79a3.518,3.518,0,0,0-3.33,1.91l1.66.69a1.764,1.764,0,0,1,1.7-.92,1.789,1.789,0,0,1,1.96,1.61v.13a4.176,4.176,0,0,0-1.95-.48c-1.79,0-3.6.98-3.6,2.81a2.886,2.886,0,0,0,3.1,2.75,2.629,2.629,0,0,0,2.38-1.22h.06v.97h1.8V35.19c.01-2.22-1.65-3.46-3.78-3.46m-.23,6.85c-.61,0-1.46-.31-1.46-1.06,0-.96,1.06-1.33,1.98-1.33a3.293,3.293,0,0,1,1.7.42,2.257,2.257,0,0,1-2.22,1.97M133.74,32l-2.14,5.42h-.06L129.32,32h-2.01l3.33,7.58-1.9,4.21h1.95L135.82,32Zm-16.8,8h1.87V27.5h-1.87Z" fill="#fff"></path></g></g><g id="Group_4406" data-name="Group 4406"><g id="Group_4405" data-name="Group 4405" clip-path="url(#clip-path-4)"><rect id="Rectangle_2712" data-name="Rectangle 2712" width="26.856" height="26.856" transform="translate(7.45 30) rotate(-45)" fill="url(#linear-gradient)"></rect></g></g><g id="Group_4408" data-name="Group 4408"><g id="Group_4407" data-name="Group 4407" clip-path="url(#clip-path-5)"><rect id="Rectangle_2713" data-name="Rectangle 2713" width="10.51" height="8.56" transform="translate(32.9 25.72)" fill="url(#linear-gradient-2)"></rect></g></g><g id="Group_4410" data-name="Group 4410"><g id="Group_4409" data-name="Group 4409" clip-path="url(#clip-path-6)"><rect id="Rectangle_2714" data-name="Rectangle 2714" width="20.994" height="20.994" transform="translate(13.935 36.505) rotate(-45)" fill="url(#linear-gradient-3)"></rect></g></g><g id="Group_4412" data-name="Group 4412"><g id="Group_4411" data-name="Group 4411" clip-path="url(#clip-path-7)"><rect id="Rectangle_2715" data-name="Rectangle 2715" width="20.894" height="20.894" transform="matrix(0.707, -0.707, 0.707, 0.707, 14, 23.571)" fill="url(#linear-gradient-4)"></rect></g></g><g id="Group_4426" data-name="Group 4426"><g id="Group_4425" data-name="Group 4425" clip-path="url(#clip-path)"><g id="Group_4415" data-name="Group 4415" opacity="0.2" style="mix-blend-mode: normal;isolation: isolate"><g id="Group_4414" data-name="Group 4414"><g id="Group_4413" data-name="Group 4413" clip-path="url(#clip-path-9)"><path id="Path_5609" data-name="Path 5609" d="M37.03,34.13,22.51,42.38a1.661,1.661,0,0,1-2,.01l-.07.07.07.07a1.663,1.663,0,0,0,2-.01l14.61-8.3Z"></path></g></g></g><g id="Group_4418" data-name="Group 4418" opacity="0.12" style="mix-blend-mode: normal;isolation: isolate"><g id="Group_4417" data-name="Group 4417"><g id="Group_4416" data-name="Group 4416" clip-path="url(#clip-path-10)"><path id="Path_5610" data-name="Path 5610" d="M20.44,42.32a2.012,2.012,0,0,1-.46-1.4v.15a1.978,1.978,0,0,0,.46,1.4l.07-.07Z"></path></g></g></g><g id="Group_4421" data-name="Group 4421" opacity="0.12" style="mix-blend-mode: normal;isolation: isolate"><g id="Group_4420" data-name="Group 4420"><g id="Group_4419" data-name="Group 4419" clip-path="url(#clip-path-11)"><path id="Path_5611" data-name="Path 5611" d="M42.01,31.3l-4.99,2.83.09.09L42,31.44A1.758,1.758,0,0,0,43.05,30a1.819,1.819,0,0,1-1.04,1.3"></path></g></g></g><g id="Group_4424" data-name="Group 4424" opacity="0.25" style="mix-blend-mode: normal;isolation: isolate"><g id="Group_4423" data-name="Group 4423"><g id="Group_4422" data-name="Group 4422" clip-path="url(#clip-path-12)"><path id="Path_5612" data-name="Path 5612" d="M22.51,17.62,42.01,28.7A1.869,1.869,0,0,1,43.06,30a1.745,1.745,0,0,0-1.05-1.44L22.51,17.48c-1.4-.79-2.54-.13-2.54,1.47v.15c0-1.61,1.15-2.27,2.54-1.48" fill="#fff"></path></g></g></g><path id="Path_5613" data-name="Path 5613" d="M51.28,23V17h1.83a3,3,0,0,1,2.21.83A2.964,2.964,0,0,1,56.15,20a2.851,2.851,0,0,1-3.03,3Zm.77-.74h1.06a2.261,2.261,0,0,0,1.65-.6,2.213,2.213,0,0,0,.61-1.67,2.2,2.2,0,0,0-.61-1.66,2.245,2.245,0,0,0-1.65-.6H52.05Z" fill="#fff"></path><path id="Path_5614" data-name="Path 5614" d="M51.28,23V17h1.83a3,3,0,0,1,2.21.83A2.964,2.964,0,0,1,56.15,20a2.851,2.851,0,0,1-3.03,3Zm.77-.74h1.06a2.261,2.261,0,0,0,1.65-.6,2.213,2.213,0,0,0,.61-1.67,2.2,2.2,0,0,0-.61-1.66,2.245,2.245,0,0,0-1.65-.6H52.05Z" fill="none" stroke="#fff" stroke-width="0.2"></path><rect id="Rectangle_2720" data-name="Rectangle 2720" width="0.77" height="6" transform="translate(57.24 17)" fill="#fff"></rect><rect id="Rectangle_2721" data-name="Rectangle 2721" width="0.77" height="6" transform="translate(57.24 17)" fill="none" stroke="#fff" stroke-width="0.2"></rect><path id="Path_5615" data-name="Path 5615" d="M61.08,23.13a2.21,2.21,0,0,1-1.28-.43,1.976,1.976,0,0,1-.82-1.2l.7-.28a1.539,1.539,0,0,0,.51.83,1.282,1.282,0,0,0,.88.34,1.459,1.459,0,0,0,.86-.26.843.843,0,0,0,.36-.72.909.909,0,0,0-.36-.77,3.781,3.781,0,0,0-1.13-.51,3.059,3.059,0,0,1-1.21-.65,1.371,1.371,0,0,1-.41-1.02,1.488,1.488,0,0,1,.51-1.12,1.873,1.873,0,0,1,1.33-.48,1.951,1.951,0,0,1,1.24.38,1.7,1.7,0,0,1,.62.83l-.7.29a1.015,1.015,0,0,0-.37-.53,1.182,1.182,0,0,0-.77-.24,1.16,1.16,0,0,0-.76.25.758.758,0,0,0-.31.62.73.73,0,0,0,.29.57,2.8,2.8,0,0,0,.85.41c.3.1.54.19.74.28a3.178,3.178,0,0,1,.6.36,1.432,1.432,0,0,1,.46.55,1.856,1.856,0,0,1,.16.77,1.661,1.661,0,0,1-.18.78,1.4,1.4,0,0,1-.48.54,2.526,2.526,0,0,1-.64.31,2.259,2.259,0,0,1-.69.1" fill="#fff"></path><path id="Path_5616" data-name="Path 5616" d="M61.08,23.13a2.21,2.21,0,0,1-1.28-.43,1.976,1.976,0,0,1-.82-1.2l.7-.28a1.539,1.539,0,0,0,.51.83,1.282,1.282,0,0,0,.88.34,1.459,1.459,0,0,0,.86-.26.843.843,0,0,0,.36-.72.909.909,0,0,0-.36-.77,3.781,3.781,0,0,0-1.13-.51,3.059,3.059,0,0,1-1.21-.65,1.371,1.371,0,0,1-.41-1.02,1.488,1.488,0,0,1,.51-1.12,1.873,1.873,0,0,1,1.33-.48,1.951,1.951,0,0,1,1.24.38,1.7,1.7,0,0,1,.62.83l-.7.29a1.015,1.015,0,0,0-.37-.53,1.182,1.182,0,0,0-.77-.24,1.16,1.16,0,0,0-.76.25.758.758,0,0,0-.31.62.73.73,0,0,0,.29.57,2.8,2.8,0,0,0,.85.41c.3.1.54.19.74.28a3.178,3.178,0,0,1,.6.36,1.432,1.432,0,0,1,.46.55,1.856,1.856,0,0,1,.16.77,1.661,1.661,0,0,1-.18.78,1.4,1.4,0,0,1-.48.54,2.526,2.526,0,0,1-.64.31A2.259,2.259,0,0,1,61.08,23.13Z" fill="none" stroke="#fff" stroke-width="0.2"></path><path id="Path_5617" data-name="Path 5617" d="M64.96,23h-.77V17h2.05a1.885,1.885,0,0,1,1.32.51,1.743,1.743,0,0,1,0,2.56,1.885,1.885,0,0,1-1.32.51H64.97V23Zm0-3.17h1.29a1,1,0,0,0,.78-.33,1.038,1.038,0,0,0,.29-.72,1.085,1.085,0,0,0-.29-.72,1,1,0,0,0-.78-.33H64.96Z" fill="#fff"></path><path id="Path_5618" data-name="Path 5618" d="M64.96,23h-.77V17h2.05a1.885,1.885,0,0,1,1.32.51,1.743,1.743,0,0,1,0,2.56,1.885,1.885,0,0,1-1.32.51H64.97V23Zm0-3.17h1.29a1,1,0,0,0,.78-.33,1.038,1.038,0,0,0,.29-.72,1.085,1.085,0,0,0-.29-.72,1,1,0,0,0-.78-.33H64.96Z" fill="none" stroke="#fff" stroke-width="0.2"></path><path id="Path_5619" data-name="Path 5619" d="M73.99,22.22a3.114,3.114,0,0,1-4.4,0,3.214,3.214,0,0,1,0-4.44,2.927,2.927,0,0,1,2.2-.91,2.958,2.958,0,0,1,2.2.91A3.08,3.08,0,0,1,74.88,20a3.129,3.129,0,0,1-.89,2.22m-3.83-.5a2.318,2.318,0,0,0,3.26,0A2.36,2.36,0,0,0,74.09,20a2.321,2.321,0,0,0-.67-1.72,2.318,2.318,0,0,0-3.26,0,2.543,2.543,0,0,0,0,3.44" fill="#fff"></path><path id="Path_5620" data-name="Path 5620" d="M73.99,22.22a3.114,3.114,0,0,1-4.4,0,3.214,3.214,0,0,1,0-4.44,2.927,2.927,0,0,1,2.2-.91,2.958,2.958,0,0,1,2.2.91A3.08,3.08,0,0,1,74.88,20,3.129,3.129,0,0,1,73.99,22.22Zm-3.83-.5a2.318,2.318,0,0,0,3.26,0A2.36,2.36,0,0,0,74.09,20a2.321,2.321,0,0,0-.67-1.72,2.318,2.318,0,0,0-3.26,0,2.543,2.543,0,0,0,0,3.44Z" fill="none" stroke="#fff" stroke-width="0.2"></path><path id="Path_5621" data-name="Path 5621" d="M75.95,23V17h.94l2.92,4.67h.03l-.03-1.16V17h.77v6h-.8l-3.05-4.89H76.7l.03,1.16V23Z" fill="#fff"></path><path id="Path_5622" data-name="Path 5622" d="M75.95,23V17h.94l2.92,4.67h.03l-.03-1.16V17h.77v6h-.8l-3.05-4.89H76.7l.03,1.16V23Z" fill="none" stroke="#fff" stroke-width="0.2"></path><rect id="Rectangle_2722" data-name="Rectangle 2722" width="0.77" height="6" transform="translate(81.95 17)" fill="#fff"></rect><rect id="Rectangle_2723" data-name="Rectangle 2723" width="0.77" height="6" transform="translate(81.95 17)" fill="none" stroke="#fff" stroke-width="0.2"></rect><path id="Path_5623" data-name="Path 5623" d="M84.1,23V17h2.17a1.8,1.8,0,0,1,1.22.46A1.546,1.546,0,0,1,88,18.63a1.253,1.253,0,0,1-.22.75,1.348,1.348,0,0,1-.59.49v.03a1.475,1.475,0,0,1,.73.52,1.366,1.366,0,0,1,.29.85,1.565,1.565,0,0,1-.54,1.22,1.8,1.8,0,0,1-1.29.51Zm.77-3.43h1.4a.919.919,0,0,0,.7-.29.893.893,0,0,0,0-1.26.855.855,0,0,0-.67-.29H84.87Zm0,2.69h1.55a.9.9,0,0,0,.72-.31,1.025,1.025,0,0,0,.28-.68.911.911,0,0,0-.29-.67.994.994,0,0,0-.75-.31H84.86v1.97Z" fill="#fff"></path><path id="Path_5624" data-name="Path 5624" d="M84.1,23V17h2.17a1.8,1.8,0,0,1,1.22.46A1.546,1.546,0,0,1,88,18.63a1.253,1.253,0,0,1-.22.75,1.348,1.348,0,0,1-.59.49v.03a1.475,1.475,0,0,1,.73.52,1.366,1.366,0,0,1,.29.85,1.565,1.565,0,0,1-.54,1.22,1.8,1.8,0,0,1-1.29.51Zm.77-3.43h1.4a.919.919,0,0,0,.7-.29.893.893,0,0,0,0-1.26.855.855,0,0,0-.67-.29H84.87Zm0,2.69h1.55a.9.9,0,0,0,.72-.31,1.025,1.025,0,0,0,.28-.68.911.911,0,0,0-.29-.67.994.994,0,0,0-.75-.31H84.86v1.97Z" fill="none" stroke="#fff" stroke-width="0.2"></path><path id="Path_5625" data-name="Path 5625" d="M89.24,23V17h.77v5.26h2.6V23Z" fill="#fff"></path><path id="Path_5626" data-name="Path 5626" d="M89.24,23V17h.77v5.26h2.6V23Z" fill="none" stroke="#fff" stroke-width="0.2"></path><path id="Path_5627" data-name="Path 5627" d="M97.08,17.74H94.35v1.9h2.46v.72H94.35v1.9h2.73V23h-3.5V17h3.5Z" fill="#fff"></path><path id="Path_5628" data-name="Path 5628" d="M97.08,17.74H94.35v1.9h2.46v.72H94.35v1.9h2.73V23h-3.5V17h3.5Z" fill="none" stroke="#fff" stroke-width="0.2"></path><path id="Path_5629" data-name="Path 5629" d="M103.81,17.74h-2.73v1.9h2.46v.72h-2.46v1.9h2.73V23h-3.5V17h3.5Z" fill="#fff"></path><path id="Path_5630" data-name="Path 5630" d="M103.81,17.74h-2.73v1.9h2.46v.72h-2.46v1.9h2.73V23h-3.5V17h3.5Z" fill="none" stroke="#fff" stroke-width="0.2"></path><path id="Path_5631" data-name="Path 5631" d="M105.01,23V17h.94l2.92,4.67h.03l-.03-1.16V17h.77v6h-.8l-3.05-4.89h-.03l.03,1.16V23Z" fill="#fff"></path><path id="Path_5632" data-name="Path 5632" d="M105.01,23V17h.94l2.92,4.67h.03l-.03-1.16V17h.77v6h-.8l-3.05-4.89h-.03l.03,1.16V23Z" fill="none" stroke="#fff" stroke-width="0.2"></path></g></g></g></svg>