<svg xmlns="http://www.w3.org/2000/svg" xmlns:xlink="http://www.w3.org/1999/xlink" id="insignia_appstore" width="155" height="60" viewBox="0 0 155 60"><defs><clipPath id="clip-path"><rect id="Rectangle_2733" data-name="Rectangle 2733" width="155" height="60" fill="none"></rect></clipPath></defs><g id="Group_4435" data-name="Group 4435"><g id="Group_4434" data-name="Group 4434" clip-path="url(#clip-path)"><g id="Group_4433" data-name="Group 4433"><g id="Group_4432" data-name="Group 4432" clip-path="url(#clip-path)"><g id="Group_4431" data-name="Group 4431" opacity="0"><g id="Group_4430" data-name="Group 4430"><g id="Group_4429" data-name="Group 4429" clip-path="url(#clip-path)"><rect id="Rectangle_2726" data-name="Rectangle 2726" width="155" height="60" fill="#fff"></rect></g></g></g><path id="Path_5633" data-name="Path 5633" d="M185.574,95.574h-125a5.015,5.015,0,0,1-5-5v-30a5.015,5.015,0,0,1,5-5h125a5.015,5.015,0,0,1,5,5v30a5.015,5.015,0,0,1-5,5" transform="translate(-45.574 -45.574)" fill="#040506"></path><path id="Path_5634" data-name="Path 5634" d="M185.574,56.375a4.2,4.2,0,0,1,4.2,4.2v30a4.2,4.2,0,0,1-4.2,4.2h-125a4.2,4.2,0,0,1-4.2-4.2v-30a4.2,4.2,0,0,1,4.2-4.2Zm0-.8h-125a5.015,5.015,0,0,0-5,5v30a5.015,5.015,0,0,0,5,5h125a5.015,5.015,0,0,0,5-5v-30a5.015,5.015,0,0,0-5-5" transform="translate(-45.574 -45.575)" fill="#959595"></path><path id="Path_5635" data-name="Path 5635" d="M284.987,100.477v-6h1.83a3,3,0,0,1,2.21.83,3,3,0,0,1-2.2,5.17Zm.77-.74h1.06a2.261,2.261,0,0,0,1.65-.6,2.578,2.578,0,0,0,0-3.33,2.246,2.246,0,0,0-1.65-.6h-1.06Z" transform="translate(-233.707 -77.477)" fill="#fff"></path><path id="Path_5636" data-name="Path 5636" d="M284.987,100.477v-6h1.83a3,3,0,0,1,2.21.83,3,3,0,0,1-2.2,5.17Zm.77-.74h1.06a2.261,2.261,0,0,0,1.65-.6,2.578,2.578,0,0,0,0-3.33,2.246,2.246,0,0,0-1.65-.6h-1.06Z" transform="translate(-233.707 -77.477)" fill="none"></path><rect id="Rectangle_2728" data-name="Rectangle 2728" width="0.77" height="6" transform="translate(57.24 17)" fill="#fff"></rect><rect id="Rectangle_2729" data-name="Rectangle 2729" width="0.77" height="6" transform="translate(57.24 17)" fill="none"></rect><path id="Path_5637" data-name="Path 5637" d="M329.879,99.969a2.21,2.21,0,0,1-1.28-.43,1.976,1.976,0,0,1-.82-1.2l.7-.28a1.539,1.539,0,0,0,.51.83,1.282,1.282,0,0,0,.88.34,1.461,1.461,0,0,0,.86-.26.843.843,0,0,0,.36-.72.909.909,0,0,0-.36-.77,3.782,3.782,0,0,0-1.13-.51,3.058,3.058,0,0,1-1.21-.65,1.371,1.371,0,0,1-.41-1.02,1.488,1.488,0,0,1,.51-1.12,1.873,1.873,0,0,1,1.33-.48,1.95,1.95,0,0,1,1.24.38,1.7,1.7,0,0,1,.62.83l-.7.29a1.016,1.016,0,0,0-.37-.53,1.182,1.182,0,0,0-.77-.24,1.159,1.159,0,0,0-.76.25.758.758,0,0,0-.31.62.729.729,0,0,0,.29.57,2.8,2.8,0,0,0,.85.41c.3.1.54.19.74.28a3.173,3.173,0,0,1,.6.36,1.433,1.433,0,0,1,.46.55,1.856,1.856,0,0,1,.16.77,1.661,1.661,0,0,1-.18.78,1.4,1.4,0,0,1-.48.54,2.522,2.522,0,0,1-.64.31,2.261,2.261,0,0,1-.69.1" transform="translate(-268.799 -76.839)" fill="#fff"></path><path id="Path_5638" data-name="Path 5638" d="M329.879,99.969a2.21,2.21,0,0,1-1.28-.43,1.976,1.976,0,0,1-.82-1.2l.7-.28a1.539,1.539,0,0,0,.51.83,1.282,1.282,0,0,0,.88.34,1.461,1.461,0,0,0,.86-.26.843.843,0,0,0,.36-.72.909.909,0,0,0-.36-.77,3.782,3.782,0,0,0-1.13-.51,3.058,3.058,0,0,1-1.21-.65,1.371,1.371,0,0,1-.41-1.02,1.488,1.488,0,0,1,.51-1.12,1.873,1.873,0,0,1,1.33-.48,1.95,1.95,0,0,1,1.24.38,1.7,1.7,0,0,1,.62.83l-.7.29a1.016,1.016,0,0,0-.37-.53,1.182,1.182,0,0,0-.77-.24,1.159,1.159,0,0,0-.76.25.758.758,0,0,0-.31.62.729.729,0,0,0,.29.57,2.8,2.8,0,0,0,.85.41c.3.1.54.19.74.28a3.173,3.173,0,0,1,.6.36,1.433,1.433,0,0,1,.46.55,1.856,1.856,0,0,1,.16.77,1.661,1.661,0,0,1-.18.78,1.4,1.4,0,0,1-.48.54,2.522,2.522,0,0,1-.64.31A2.261,2.261,0,0,1,329.879,99.969Z" transform="translate(-268.799 -76.839)" fill="none"></path><path id="Path_5639" data-name="Path 5639" d="M357.5,100.477h-.77v-6h2.05a1.884,1.884,0,0,1,1.32.51,1.743,1.743,0,0,1,0,2.56,1.885,1.885,0,0,1-1.32.51h-1.27v2.42Zm0-3.17h1.29a1,1,0,0,0,.78-.33,1.039,1.039,0,0,0,.29-.72,1.086,1.086,0,0,0-.29-.72,1,1,0,0,0-.78-.33H357.5Z" transform="translate(-292.544 -77.477)" fill="#fff"></path><path id="Path_5640" data-name="Path 5640" d="M357.5,100.477h-.77v-6h2.05a1.884,1.884,0,0,1,1.32.51,1.743,1.743,0,0,1,0,2.56,1.885,1.885,0,0,1-1.32.51h-1.27v2.42Zm0-3.17h1.29a1,1,0,0,0,.78-.33,1.039,1.039,0,0,0,.29-.72,1.086,1.086,0,0,0-.29-.72,1,1,0,0,0-.78-.33H357.5Z" transform="translate(-292.544 -77.477)" fill="none"></path><path id="Path_5641" data-name="Path 5641" d="M387.088,99.1a3.115,3.115,0,0,1-4.4,0,3.214,3.214,0,0,1,0-4.44,2.928,2.928,0,0,1,2.2-.91,2.958,2.958,0,0,1,2.2.91,3.08,3.08,0,0,1,.89,2.22,3.129,3.129,0,0,1-.89,2.22m-3.83-.5a2.317,2.317,0,0,0,3.26,0,2.36,2.36,0,0,0,.67-1.72,2.321,2.321,0,0,0-.67-1.72,2.318,2.318,0,0,0-3.26,0,2.543,2.543,0,0,0,0,3.44" transform="translate(-313.098 -76.884)" fill="#fff"></path><path id="Path_5642" data-name="Path 5642" d="M387.088,99.1a3.115,3.115,0,0,1-4.4,0,3.214,3.214,0,0,1,0-4.44,2.928,2.928,0,0,1,2.2-.91,2.958,2.958,0,0,1,2.2.91,3.08,3.08,0,0,1,.89,2.22A3.129,3.129,0,0,1,387.088,99.1Zm-3.83-.5a2.317,2.317,0,0,0,3.26,0,2.36,2.36,0,0,0,.67-1.72,2.321,2.321,0,0,0-.67-1.72,2.318,2.318,0,0,0-3.26,0,2.543,2.543,0,0,0,0,3.44Z" transform="translate(-313.098 -76.884)" fill="none"></path><path id="Path_5643" data-name="Path 5643" d="M422.089,100.477v-6h.94l2.92,4.67h.03l-.03-1.16v-3.51h.77v6h-.8l-3.05-4.89h-.03l.03,1.16v3.73Z" transform="translate(-346.139 -77.477)" fill="#fff"></path><path id="Path_5644" data-name="Path 5644" d="M422.089,100.477v-6h.94l2.92,4.67h.03l-.03-1.16v-3.51h.77v6h-.8l-3.05-4.89h-.03l.03,1.16v3.73Z" transform="translate(-346.139 -77.477)" fill="none"></path><rect id="Rectangle_2730" data-name="Rectangle 2730" width="0.77" height="6" transform="translate(81.95 17)" fill="#fff"></rect><rect id="Rectangle_2731" data-name="Rectangle 2731" width="0.77" height="6" transform="translate(81.95 17)" fill="none"></rect><path id="Path_5645" data-name="Path 5645" d="M467.383,100.477v-6h2.17a1.8,1.8,0,0,1,1.22.46,1.546,1.546,0,0,1,.51,1.17,1.252,1.252,0,0,1-.22.75,1.347,1.347,0,0,1-.59.49v.03a1.475,1.475,0,0,1,.73.52,1.366,1.366,0,0,1,.29.85,1.565,1.565,0,0,1-.54,1.22,1.8,1.8,0,0,1-1.29.51Zm.77-3.43h1.4a.92.92,0,0,0,.7-.29.893.893,0,0,0,0-1.26.855.855,0,0,0-.67-.29h-1.43Zm0,2.69h1.55a.9.9,0,0,0,.72-.31,1.025,1.025,0,0,0,.28-.68.911.911,0,0,0-.29-.67.994.994,0,0,0-.75-.31h-1.52v1.97Z" transform="translate(-383.283 -77.477)" fill="#fff"></path><path id="Path_5646" data-name="Path 5646" d="M467.383,100.477v-6h2.17a1.8,1.8,0,0,1,1.22.46,1.546,1.546,0,0,1,.51,1.17,1.252,1.252,0,0,1-.22.75,1.347,1.347,0,0,1-.59.49v.03a1.475,1.475,0,0,1,.73.52,1.366,1.366,0,0,1,.29.85,1.565,1.565,0,0,1-.54,1.22,1.8,1.8,0,0,1-1.29.51Zm.77-3.43h1.4a.92.92,0,0,0,.7-.29.893.893,0,0,0,0-1.26.855.855,0,0,0-.67-.29h-1.43Zm0,2.69h1.55a.9.9,0,0,0,.72-.31,1.025,1.025,0,0,0,.28-.68.911.911,0,0,0-.29-.67.994.994,0,0,0-.75-.31h-1.52v1.97Z" transform="translate(-383.283 -77.477)" fill="none"></path><path id="Path_5647" data-name="Path 5647" d="M495.948,100.477v-6h.77v5.26h2.6v.74Z" transform="translate(-406.708 -77.477)" fill="#fff"></path><path id="Path_5648" data-name="Path 5648" d="M495.948,100.477v-6h.77v5.26h2.6v.74Z" transform="translate(-406.708 -77.477)" fill="none"></path><path id="Path_5649" data-name="Path 5649" d="M523.568,95.217h-2.73v1.9h2.46v.72h-2.46v1.9h2.73v.74h-3.5v-6h3.5Z" transform="translate(-426.488 -77.477)" fill="#fff"></path><path id="Path_5650" data-name="Path 5650" d="M523.568,95.217h-2.73v1.9h2.46v.72h-2.46v1.9h2.73v.74h-3.5v-6h3.5Z" transform="translate(-426.488 -77.477)" fill="none"></path><path id="Path_5651" data-name="Path 5651" d="M560.969,95.217h-2.73v1.9h2.46v.72h-2.46v1.9h2.73v.74h-3.5v-6h3.5Z" transform="translate(-457.159 -77.477)" fill="#fff"></path><path id="Path_5652" data-name="Path 5652" d="M560.969,95.217h-2.73v1.9h2.46v.72h-2.46v1.9h2.73v.74h-3.5v-6h3.5Z" transform="translate(-457.159 -77.477)" fill="none"></path><path id="Path_5653" data-name="Path 5653" d="M583.589,100.477v-6h.94l2.92,4.67h.03l-.03-1.16v-3.51h.77v6h-.8l-3.05-4.89h-.03l.03,1.16v3.73Z" transform="translate(-478.579 -77.477)" fill="#fff"></path><path id="Path_5654" data-name="Path 5654" d="M583.589,100.477v-6h.94l2.92,4.67h.03l-.03-1.16v-3.51h.77v6h-.8l-3.05-4.89h-.03l.03,1.16v3.73Z" transform="translate(-478.579 -77.477)" fill="none"></path><path id="Path_5655" data-name="Path 5655" d="M133.993,127.621a5.522,5.522,0,0,0-2.586,5.019,5.259,5.259,0,0,0,3.223,4.556,1.637,1.637,0,0,1-.034.171,12.347,12.347,0,0,1-1.859,3.59c-.228.307-.434.632-.681.922a8.878,8.878,0,0,1-.926.97,3.045,3.045,0,0,1-3.091.637c-.343-.11-.675-.252-1.01-.387a4.71,4.71,0,0,0-2.405-.357,6.049,6.049,0,0,0-1.421.382c-.387.151-.771.314-1.169.426a2.8,2.8,0,0,1-1.958-.1,4.029,4.029,0,0,1-1.165-.839,12.81,12.81,0,0,1-1.738-2.213,14.918,14.918,0,0,1-2.368-6.866,9.267,9.267,0,0,1,.495-4.193,6.1,6.1,0,0,1,3.373-3.607,5.062,5.062,0,0,1,3.9-.137c.449.17.906.324,1.348.512a2.26,2.26,0,0,0,1.814.016,16.6,16.6,0,0,1,1.817-.66,5.769,5.769,0,0,1,6.052,1.648,6.012,6.012,0,0,1,.395.508" transform="translate(-94.106 -102.677)" fill="#fff"></path><path id="Path_5656" data-name="Path 5656" d="M487.3,159.648h2.165c.021.068.042.129.056.191a2.358,2.358,0,0,0,1.431,1.684,4.277,4.277,0,0,0,3.474.061A2.107,2.107,0,0,0,495.7,160.3a1.651,1.651,0,0,0-.492-1.785,2.758,2.758,0,0,0-1.024-.572c-.733-.216-1.475-.4-2.212-.6-.579-.161-1.16-.315-1.73-.5a4.614,4.614,0,0,1-1.588-.965,2.84,2.84,0,0,1-.939-1.859,3.768,3.768,0,0,1,2.322-4.072,5.965,5.965,0,0,1,2.415-.539,6.4,6.4,0,0,1,2.3.274,4.432,4.432,0,0,1,2.647,2.114,3.13,3.13,0,0,1,.369,1.6,9.625,9.625,0,0,1-2.076.024c-.026-.085-.059-.176-.082-.27a2.211,2.211,0,0,0-1.492-1.652,3.835,3.835,0,0,0-3.236.216,1.789,1.789,0,0,0-.928,1.842,1.166,1.166,0,0,0,.444.814,3.842,3.842,0,0,0,.891.537c.5.193,1.019.323,1.534.469.851.241,1.709.458,2.555.716a4.7,4.7,0,0,1,1.68,1,2.753,2.753,0,0,1,.934,1.925,4.486,4.486,0,0,1-.169,1.846,3.718,3.718,0,0,1-1.55,1.967,6.516,6.516,0,0,1-3.63.939,6.727,6.727,0,0,1-2.663-.472,4.03,4.03,0,0,1-2.55-2.832c-.063-.251-.086-.512-.135-.811" transform="translate(-399.615 -122.515)" fill="#fff"></path><path id="Path_5657" data-name="Path 5657" d="M553.48,162.4h-1.423v-1.66h1.437v-2.376h2.118v2.369h1.878a5.816,5.816,0,0,1,.03,1.657h-1.871a2.72,2.72,0,0,0-.031.281q0,2.539,0,5.078a4.214,4.214,0,0,0,.044.521.982.982,0,0,0,1.029.938c.271.011.543,0,.835,0v1.634a5.71,5.71,0,0,1-2.6-.1,1.912,1.912,0,0,1-1.357-1.685,7.621,7.621,0,0,1-.071-1.044c0-1.769,0-3.538,0-5.307,0-.085-.008-.171-.016-.308" transform="translate(-452.721 -129.872)" fill="#fff"></path><path id="Path_5658" data-name="Path 5658" d="M653.861,181.217h-2.089v-10.1h1.989c.037.514,0,1.022.042,1.539a2.5,2.5,0,0,1,1.453-1.5,2.892,2.892,0,0,1,1.7-.071v1.926c-.082-.009-.163-.014-.243-.029a2.894,2.894,0,0,0-1.3.007,2.08,2.08,0,0,0-1.547,2.068c0,1.932,0,3.864,0,5.8v.36" transform="translate(-534.493 -140.228)" fill="#fff"></path><path id="Path_5659" data-name="Path 5659" d="M174.653,92.68c.327,2.661-1.849,5.726-4.836,5.593a5.245,5.245,0,0,1,4.836-5.593" transform="translate(-139.228 -76.003)" fill="#fff"></path><path id="Path_5660" data-name="Path 5660" d="M279.459,164.144q-1.263-3.493-2.526-6.986-1.131-3.123-2.265-6.245c-.1-.278-.1-.275-.4-.274q-.869,0-1.739,0c-.335,0-.337,0-.446.3q-2.408,6.647-4.813,13.294c-.031.086-.047.178-.075.284h2.261c.044-.115.086-.215.121-.317q.527-1.549,1.051-3.1c.1-.3.1-.3.407-.3l4.692,0c.085,0,.171.012.271.019l1.257,3.7h2.326c-.05-.151-.085-.264-.125-.375m-8.147-5.155,2.02-5.934.065,0,2.013,5.909a35.3,35.3,0,0,1-4.1.02" transform="translate(-219.119 -123.532)" fill="#fff"></path><path id="Path_5661" data-name="Path 5661" d="M414.475,173.642a4.046,4.046,0,0,0-4.349-2.664,3.474,3.474,0,0,0-2.538,1.449l-.167.222-.059-.014v-1.56c-.712-.014-1.361-.022-2.009,0v13.455h2.073c0-.817,0-1.623,0-2.428s0-1.624.007-2.436a.509.509,0,0,1,.207.191,3.408,3.408,0,0,0,1.673,1.264,4.117,4.117,0,0,0,2.3.08,3.875,3.875,0,0,0,2.6-1.992,5.376,5.376,0,0,0,.636-2.085,7.136,7.136,0,0,0-.37-3.482m-2.31,4.694a2.441,2.441,0,0,1-4.3-.228,4.508,4.508,0,0,1-.377-2.744,3.574,3.574,0,0,1,.532-1.465,2.453,2.453,0,0,1,4.253.22,4.5,4.5,0,0,1,.449,2.107,4.048,4.048,0,0,1-.555,2.111" transform="translate(-332.415 -140.191)" fill="#fff"></path><path id="Path_5662" data-name="Path 5662" d="M352.433,173.7a3.888,3.888,0,0,0-3.6-2.7,3.562,3.562,0,0,0-3.365,1.571,1.8,1.8,0,0,1-.161.16v-1.619h-1.987v13.45h2.07c0-.214,0-.409,0-.6q0-2.031.008-4.063c0-.076.017-.152.03-.263.125.174.212.315.317.439a3.584,3.584,0,0,0,3.8,1.159,3.839,3.839,0,0,0,2.877-2.532,6.9,6.9,0,0,0,.015-5m-2.263,4.592a2.452,2.452,0,0,1-3.237,1,2.171,2.171,0,0,1-.9-.788,3.752,3.752,0,0,1-.584-1.55,4.729,4.729,0,0,1,.236-2.449,2.53,2.53,0,0,1,1.713-1.629,2.448,2.448,0,0,1,2.761,1.138,4.13,4.13,0,0,1,.52,2.064,4.254,4.254,0,0,1-.508,2.214" transform="translate(-281.542 -140.224)" fill="#fff"></path><path id="Path_5663" data-name="Path 5663" d="M691.924,174.034a4.106,4.106,0,0,0-3.2-3,5.474,5.474,0,0,0-1.5-.1,4.17,4.17,0,0,0-3.906,2.763,6.556,6.556,0,0,0-.1,4.648,4.124,4.124,0,0,0,2.764,2.723,5.8,5.8,0,0,0,2.176.207,4.478,4.478,0,0,0,3.237-1.578,2.8,2.8,0,0,0,.652-1.462c-.041-.021-.06-.038-.079-.039-.59-.006-1.181-.007-1.771-.016-.151,0-.2.09-.26.2a2.281,2.281,0,0,1-1.2,1.067,2.808,2.808,0,0,1-1.163.145,2.62,2.62,0,0,1-2.5-2.034,2.447,2.447,0,0,1-.053-.922h7.1a.687.687,0,0,0,.044-.136,7.635,7.635,0,0,0-.238-2.466m-1.886,1.091h-5.017a4.965,4.965,0,0,1,.093-.589,2.45,2.45,0,0,1,1.87-1.829,2.4,2.4,0,0,1,2.474.752,2.228,2.228,0,0,1,.581,1.666" transform="translate(-559.974 -140.164)" fill="#fff"></path><path id="Path_5664" data-name="Path 5664" d="M597.872,174.179a4.34,4.34,0,0,0-3.792-3.248,5.683,5.683,0,0,0-1.309-.027,4.31,4.31,0,0,0-3.947,2.959,7.308,7.308,0,0,0-.393,2.223c.071.539.1,1.089.221,1.616a4.276,4.276,0,0,0,2.939,3.318,5.46,5.46,0,0,0,2.981.1,4.252,4.252,0,0,0,3.225-2.917,6.541,6.541,0,0,0,.074-4.028m-2.163,3.547a2.359,2.359,0,0,1-1.7,1.7,2.443,2.443,0,0,1-3-1.406,4.991,4.991,0,0,1,0-3.889,2.5,2.5,0,0,1,3.4-1.274,2.218,2.218,0,0,1,1.062.984,5.28,5.28,0,0,1,.513,2.632,10.962,10.962,0,0,1-.266,1.25" transform="translate(-482.551 -140.131)" fill="#fff"></path></g></g></g></g></svg>